<?xml version="1.0" encoding="UTF-8" standalone="no"?>
<!DOCTYPE svg PUBLIC "-//W3C//DTD SVG 1.1//EN" "http://www.w3.org/Graphics/SVG/1.1/DTD/svg11.dtd">
<svg width="100%" height="100%" viewBox="0 0 100 125" version="1.1" xmlns="http://www.w3.org/2000/svg" xmlns:xlink="http://www.w3.org/1999/xlink" xml:space="preserve" xmlns:serif="http://www.serif.com/" style="fill-rule:evenodd;clip-rule:evenodd;stroke-linejoin:round;stroke-miterlimit:2;">
    <g transform="matrix(1.037037,0,0,1.037037,46.596619,49.044288)">
        <g transform="matrix(1,0,0,1,-55,-67.5)">
            <g transform="matrix(1,0,0,1,5,10)">
                <path d="M18.852,16.68C17.707,16.676 16.774,17.594 16.758,18.742L16.758,81.243C16.758,81.797 16.977,82.328 17.371,82.723C17.762,83.114 18.297,83.336 18.852,83.332L81.258,83.332C82.402,83.321 83.324,82.387 83.32,81.243L83.199,18.743L83.195,18.743C83.184,17.61 82.27,16.696 81.137,16.68L18.852,16.68ZM20.915,20.832L79.047,20.832L79.169,79.18L20.915,79.18L20.915,20.832Z" style="fill-rule:nonzero;"/>
            </g>
            <g transform="matrix(1,0,0,1,5,10)">
                <path d="M18.855,37.531L18.839,82.234L62.718,82.234C63.078,82.902 63.769,83.324 64.527,83.332C65.683,83.336 66.625,82.398 66.617,81.242L66.617,70.875C66.621,69.719 65.683,68.777 64.527,68.785L54.16,68.781L54.16,68.75L20.832,68.75L20.832,65.648L54.156,65.648L54.156,60.441C54.16,59.285 53.222,58.344 52.066,58.352L45.605,58.352L45.605,58.367L20.832,58.367L20.832,55.258L41.582,55.258L41.582,49.984C41.571,48.84 40.637,47.922 39.492,47.926L33.242,47.926L33.242,47.918L20.832,47.918L20.832,44.816L33.242,44.816L33.242,39.617C33.246,38.461 32.309,37.519 31.153,37.527L18.855,37.531Z" style="fill-rule:nonzero;"/>
            </g>
        </g>
    </g>
</svg>
