<?xml version="1.0" encoding="UTF-8" standalone="no"?>
<!DOCTYPE svg PUBLIC "-//W3C//DTD SVG 1.1//EN" "http://www.w3.org/Graphics/SVG/1.1/DTD/svg11.dtd">
<svg width="100%" height="100%" viewBox="0 0 100 125" version="1.1" xmlns="http://www.w3.org/2000/svg" xmlns:xlink="http://www.w3.org/1999/xlink" xml:space="preserve" xmlns:serif="http://www.serif.com/" style="fill-rule:evenodd;clip-rule:evenodd;stroke-linejoin:round;stroke-miterlimit:2;">
    <g transform="matrix(0.765876,0.207686,-0.207686,0.765876,22.61694,-6.713381)">
        <path d="M96.3,15.7C95,9.8 90.2,5 84.3,3.7L83.9,3.6L5.9,88.2L5.6,88.6L5.8,89C6.4,90.1 7.1,91.1 8,92C8.9,92.9 9.9,93.6 11,94.2L11.4,94.4L96.1,16.3L96.4,16L96.3,15.7ZM94.8,15.6L26.2,68.3L84.4,5.2C89.5,6.5 93.5,10.5 94.8,15.6ZM83.4,26.2L26.3,78.8L26.1,78.4C25.2,76.3 23.6,74.7 21.5,73.8L21.3,73.7L83.4,26.2ZM7.3,88.8L20.2,74.8L21.1,75.2C22.8,75.9 24.2,77.3 24.9,79L25.3,79.9L11.3,92.8C9.6,91.8 8.2,90.4 7.3,88.8Z" style="fill-rule:nonzero;"/>
    </g>
</svg>
