<?xml version="1.0" encoding="UTF-8" standalone="no"?>
<!DOCTYPE svg PUBLIC "-//W3C//DTD SVG 1.1//EN" "http://www.w3.org/Graphics/SVG/1.1/DTD/svg11.dtd">
<svg width="100%" height="100%" viewBox="0 0 100 125" version="1.1" xmlns="http://www.w3.org/2000/svg" xmlns:xlink="http://www.w3.org/1999/xlink" xml:space="preserve" xmlns:serif="http://www.serif.com/" style="fill-rule:evenodd;clip-rule:evenodd;stroke-linejoin:round;stroke-miterlimit:2;">
    <g transform="matrix(0.8,0,0,0.8,52.080865,47.309967)">
        <g transform="matrix(1,0,0,1,-55,-67.5)">
            <g transform="matrix(1,0,0,1,5,10)">
                <path d="M48.48,72.527C50.386,72.039 49.824,69.207 47.89,69.461C46.05,69.519 45.917,72.238 47.703,72.582L47.921,71.73L47.921,72.582C48.031,72.582 48.234,72.582 48.48,72.523L48.48,72.527Z" style="fill-rule:nonzero;"/>
            </g>
            <g transform="matrix(1,0,0,1,5,10)">
                <path d="M19.305,69.602C20.035,69.918 20.785,70.207 21.555,70.473C12.606,73.879 6.993,81.68 6.828,81.965C6.531,82.395 6.465,82.942 6.656,83.426C6.848,83.91 7.265,84.27 7.777,84.383C8.16,84.465 17.234,86.399 26.246,82.86C27.582,82.336 28.899,81.699 30.192,80.953C29.035,85.485 29.727,89.465 29.762,89.668C29.922,90.735 31.246,91.313 32.141,90.707C32.313,90.637 37.43,87.2 39.738,81.703L44.406,93.629C46.414,98.364 53.395,95.626 51.66,90.79L46.981,78.86C48.524,79.332 51.586,81.262 52.387,78.852C52.582,78.012 52.055,77.172 51.215,76.977C48.75,76.395 46.887,75.524 44.801,73.883C43.613,72.887 41.766,74.254 42.379,75.68L48.754,91.926C49.117,92.824 47.684,93.442 47.32,92.492L40.961,76.242C40.445,74.781 38.152,75.028 37.961,76.57C37.559,80.293 35.004,84.246 32.656,86.289C32.617,83.86 33.305,80.02 35.062,77.422C36.004,75.961 34.082,74.262 32.746,75.383C30.312,77.379 27.742,78.914 25.105,79.949C19.742,82.055 14.218,81.985 11.074,81.695C13.828,78.192 21.562,72.574 28.058,71.961C29.773,71.695 29.769,69.133 28.051,68.875C25.344,68.438 22.82,67.719 20.551,66.735C14.383,64.039 9.949,59.356 7.746,56.649C12.464,56.024 23.355,57.504 29.07,62.164C30.48,63.18 32.277,61.352 31.226,59.957C29.148,57.145 27.519,54.234 26.378,51.317C23.273,43.383 23.652,35.2 24.12,31.169C25.456,32.309 27.312,34.036 29.218,36.262C29.781,36.915 30.765,36.993 31.421,36.43C32.077,35.868 32.152,34.883 31.589,34.227C27.659,29.645 24.023,27.098 23.87,26.993C23.003,26.352 21.651,26.88 21.452,27.942C20.792,29.551 18.999,45.712 25.288,56.415C15.605,52.032 4.909,53.743 4.577,53.849C4.065,53.942 3.632,54.282 3.421,54.759C3.214,55.235 3.257,55.786 3.534,56.224C3.769,56.591 9.39,65.267 19.292,69.599L19.305,69.602Z" style="fill-rule:nonzero;"/>
            </g>
            <g transform="matrix(1,0,0,1,5,10)">
                <path d="M41.547,57.219C41.719,56.453 41.953,55.496 42.195,54.7C42.543,53.676 41.656,52.571 40.586,52.672C39.555,51.657 37.656,52.692 38,54.133C38.207,55.2 38.344,56.114 38.442,57.09C38.586,58.86 41.203,58.95 41.543,57.223L41.547,57.219Z" style="fill-rule:nonzero;"/>
            </g>
            <g transform="matrix(1,0,0,1,5,10)">
                <path d="M95.266,29.633C94.985,29.539 83.735,28.903 74.454,34.301C75.048,32.883 75.544,31.461 75.95,30.043C79.536,17.449 75.755,5.5 75.591,4.996C75.431,4.5 75.032,4.117 74.532,3.973C74.028,3.832 73.489,3.945 73.095,4.285C72.692,4.625 63.184,12.793 59.603,25.387C59.2,26.805 58.876,28.278 58.63,29.798C53.567,20.305 43.704,14.958 43.396,14.868C42.931,14.633 42.38,14.641 41.923,14.895C41.466,15.149 41.169,15.614 41.126,16.133C40.806,16.621 40.908,30.613 46.97,38.848C37.708,36.059 28.165,38.918 27.892,39.055C27.396,39.215 27.013,39.614 26.869,40.114C26.724,40.614 26.841,41.153 27.181,41.551C27.439,41.856 33.587,49.012 43.068,51.711C44.49,52.118 45.974,52.414 47.51,52.606C43.748,55.571 41.834,59.254 41.74,59.442C41.225,60.387 41.928,61.653 43.002,61.711C43.154,61.774 49.568,62.11 54.76,59.063L51.166,71.688C50.545,73.707 51.826,76.012 53.873,76.547C55.904,77.141 58.146,75.946 58.736,73.84L62.33,61.215C65.143,66.543 70.768,69.621 70.932,69.661C71.877,70.18 73.143,69.473 73.201,68.399C73.217,68.192 73.533,64.055 71.897,59.551C73.303,60.196 74.721,60.723 76.143,61.129C85.623,63.825 94.62,60.981 94.998,60.86C95.494,60.7 95.877,60.301 96.021,59.801C96.166,59.301 96.048,58.762 95.709,58.364C95.564,58.106 88.931,50.645 79.6,48.141C80.381,47.785 81.139,47.402 81.869,46.996C91.478,41.644 96.33,32.301 96.533,31.906C97.049,30.961 96.346,29.695 95.271,29.637L95.266,29.633ZM80.344,44.262C78.145,45.485 75.657,46.465 72.946,47.176C71.258,47.598 71.5,50.153 73.239,50.246C79.891,50.211 88.333,55.223 91.454,58.496C88.301,59.11 82.672,59.735 76.989,58.117C74.223,57.332 71.465,56.02 68.793,54.227C67.391,53.227 65.598,55.137 66.68,56.473C68.715,58.93 69.813,62.856 69.992,65.317C67.407,63.493 64.367,59.653 63.61,55.914C63.27,54.399 61.004,54.383 60.594,55.872L55.727,72.977C55.606,73.406 55.153,73.656 54.727,73.531C54.309,73.422 54.043,72.949 54.172,72.531L59.043,55.426C59.344,54.461 58.543,53.411 57.539,53.434C57.145,53.434 56.754,53.582 56.453,53.872C55.371,54.915 54.227,55.774 53.055,56.426C50.614,57.786 47.993,58.309 46.075,58.5C47.528,56.5 50.524,53.747 53.551,52.727C55.168,52.133 54.692,49.622 52.938,49.704C49.711,49.817 46.68,49.481 43.918,48.696C38.235,47.079 33.781,43.579 31.422,41.403C35.762,40.258 45.656,40.458 51.25,43.981C52.778,44.821 54.332,42.774 53.118,41.524C51.188,39.497 49.59,37.352 48.364,35.153C45.008,29.126 44.309,22.548 44.203,19.001C47.16,20.958 52.387,25.016 55.742,31.048C56.703,32.767 57.489,34.614 58.149,36.696C58.649,38.356 61.196,37.989 61.199,36.243C61.25,32.684 61.719,29.321 62.594,26.239C64.985,17.841 70.383,11.419 73.242,8.458C74.117,12.481 75.32,20.778 72.929,29.181C72.054,32.263 70.679,35.369 68.847,38.419C67.937,39.896 69.894,41.56 71.203,40.412C72.863,38.994 74.504,37.837 76.222,36.88C82.25,33.525 88.827,32.826 92.374,32.72C90.414,35.677 86.355,40.904 80.331,44.259L80.344,44.262Z" style="fill-rule:nonzero;"/>
            </g>
        </g>
    </g>
</svg>
