<svg xmlns="http://www.w3.org/2000/svg" version="1.1" viewBox="-5.0 -10.0 110.0 135.0">
 <g>
  <path d="m25 93.75h50c0.86328 0 1.5625 0.86328 1.5625 1.5625 0 0.86328-0.69922 1.5625-1.5625 1.5625h-50c-0.86328 0-1.5625-0.86328-1.5625-1.5625 0-0.86328 0.69922-1.5625 1.5625-1.5625z"/>
  <path d="m4.6875 93.75h10.938c0.86328 0 1.5625 0.86328 1.5625 1.5625 0 0.86328-0.69922 1.5625-1.5625 1.5625h-10.938c-0.86328 0-1.5625-0.86328-1.5625-1.5625 0-0.86328 0.69922-1.5625 1.5625-1.5625z"/>
  <path d="m15.625 81.25h42.188c0.86328 0 1.5625 0.86328 1.5625 1.5625 0 0.86328-0.69922 1.5625-1.5625 1.5625h-42.188c-0.86328 0-1.5625-0.86328-1.5625-1.5625 0-0.86328 0.69922-1.5625 1.5625-1.5625z"/>
  <path d="m4.6875 81.25h1.5625c0.86328 0 1.5625 0.86328 1.5625 1.5625 0 0.86328-0.69922 1.5625-1.5625 1.5625h-1.5625c-0.86328 0-1.5625-0.86328-1.5625-1.5625 0-0.86328 0.69922-1.5625 1.5625-1.5625z"/>
  <path d="m21.875 62.5h18.75c0.86328 0 1.5625 0.86328 1.5625 1.5625 0 0.86328-0.69922 1.5625-1.5625 1.5625h-18.75c-0.86328 0-1.5625-0.86328-1.5625-1.5625 0-0.86328 0.69922-1.5625 1.5625-1.5625z"/>
  <path d="m9.375 62.5h3.125c0.86328 0 1.5625 0.86328 1.5625 1.5625 0 0.86328-0.69922 1.5625-1.5625 1.5625h-3.125c-0.86328 0-1.5625-0.86328-1.5625-1.5625 0-0.86328 0.69922-1.5625 1.5625-1.5625z"/>
  <path d="m29.688 53.125h3.125c0.86328 0 1.5625 0.86328 1.5625 1.5625 0 0.86328-0.69922 1.5625-1.5625 1.5625h-3.125c-0.86328 0-1.5625-0.86328-1.5625-1.5625 0-0.86328 0.69922-1.5625 1.5625-1.5625z"/>
  <path d="m4.6875 53.125h18.75c0.86328 0 1.5625 0.86328 1.5625 1.5625 0 0.86328-0.69922 1.5625-1.5625 1.5625h-18.75c-0.86328 0-1.5625-0.86328-1.5625-1.5625 0-0.86328 0.69922-1.5625 1.5625-1.5625z"/>
  <path d="m44.047 57.281c0.35938-0.32812 0.375-0.5625 0.375-0.64062 0-0.26562-0.14062-0.59375-0.40625-0.84375l-9.5-10.875-0.8125 0.85938c-1.625 1.75-1.625 4.4531 0.015625 6.0938l7.125 8.4219 3.2031-3z"/>
  <path d="m60.188 75.234c1.7656-1.4062 4.3281-1.2656 5.9531 0.32812l2.7031 2.6562c4.1094 4.0469 9.1719 7.2031 14.672 9.1406l11.906 4.1875s0.078125-0.125 0.10938-0.1875c1.1562-2.2969 1.3594-4.9688 0.59375-7.5312-0.1875-0.60938-0.4375-1.1719-0.6875-1.7188-0.95312-1.9219-2.5312-3.5938-4.5781-4.8125-1.0156-0.60938-2.0469-1-2.8438-1.2656l-2.4062-0.8125-0.046875-0.09375-0.84375-1.7188h-9.0312c-0.3125-0.34375-0.5625-0.73438-0.76562-1.1406l-1.0312-1.9844h9.2969l-1.5312-3.125h-9.3906l-1.625-3.125h9.4844l-1.5312-3.125h-9.5781l-1.625-3.125h9.6719l-0.42188-0.875c-0.25-0.95312-0.67188-1.8594-1.2812-2.7031-0.21875-0.29688-0.46875-0.54688-0.75-0.79688-0.046875-0.046875-0.09375-0.078125-0.14062-0.125-0.26562-0.21875-0.5625-0.40625-0.875-0.57812-0.078125-0.046875-0.17188-0.09375-0.25-0.14062-0.29688-0.15625-0.60938-0.29688-0.9375-0.42188-0.125-0.046875-0.26562-0.09375-0.39062-0.14062-0.1875-0.0625-0.39062-0.125-0.57812-0.1875-0.40625-0.10938-0.78125-0.21875-1.1719-0.29688 7.0156-5.4688 13.438-11.656 19.094-18.422l6.9688-8.2969c0.54688-0.65625 0.46875-1.6406-0.1875-2.1875l-8.0156-18.234c0-0.46875-0.15625-0.9375-0.54688-1.25v-0.03125h-0.03125c-0.6875-0.53125-1.6719-0.39062-2.1875 0.28125l-8.4844 11.031c-4.0469 5.2656-8.6719 10.109-13.703 14.375l-8.2969 7.0312c-1.25-1.0938-2.8281-1.6406-4.2969-1.4531-4.125 0.48438-7.5 1.4844-10.547 4.75l-3.2188 3.4062 9.4375 10.828c0.85938 0.84375 1.375 2.1094 1.3438 3.375-0.03125 1.2188-0.5625 2.3438-1.4844 3.1719l-3.0781 2.8906 10.609 12.531c0.875 1.0312 1.7812 2.0156 2.7031 2.9844l3.9062-3.0781z"/>
  <path d="m82.453 90.328c-5.9219-2.0938-11.391-5.5-15.828-9.875l-2.7031-2.6562c-0.48438-0.48438-1.2812-0.53125-1.8125-0.10938l-3.6094 2.8438c7.4688 7.1562 16.422 12.516 26.328 15.672 0.89062 0.42188 1.8594 0.64062 2.8281 0.64062 1.2188 0 2.4531-0.34375 3.5625-1.0156 0.85938-0.53125 1.25-0.82812 1.4844-1.0312 0.23438-0.1875 0.4375-0.40625 0.67188-0.625l-10.922-3.8594z"/>
 </g>
<text x="0.0" y="117.5" font-size="5.0" font-weight="bold" font-family="Arbeit Regular, Helvetica, Arial-Unicode, Arial, Sans-serif" fill="#000000">Created by Mindworld</text><text x="0.0" y="122.5" font-size="5.0" font-weight="bold" font-family="Arbeit Regular, Helvetica, Arial-Unicode, Arial, Sans-serif" fill="#000000">from Noun Project</text></svg>